<svg stroke="currentColor" fill="none" color="white" stroke-width="2" viewBox="0 0 24 24" stroke-linecap="round" stroke-linejoin="round" height="1em" width="1em" xmlns="http://www.w3.org/2000/svg" data-darkreader-inline-stroke="" style="--darkreader-inline-stroke: currentColor;"><path stroke="none" d="M0 0h24v24H0z" fill="none" data-darkreader-inline-stroke="" style="--darkreader-inline-stroke: none;"></path><path d="M7 17m-2 0a2 2 0 1 0 4 0a2 2 0 1 0 -4 0"></path><path d="M17 17m-2 0a2 2 0 1 0 4 0a2 2 0 1 0 -4 0"></path><path d="M5 17h-2v-4m-1 -8h11v12m-4 0h6m4 0h2v-6h-8m0 -5h5l3 5"></path><path d="M3 9l4 0"></path></svg>